<svg xmlns="http://www.w3.org/2000/svg" xml:space="preserve" width="32" height="32" viewBox="0 0 0 0"><g style="stroke:none;stroke-width:0;stroke-dasharray:none;stroke-linecap:butt;stroke-linejoin:miter;stroke-miterlimit:10;fill:none;fill-rule:nonzero;opacity:1"><path d="m46.977 6.625 8.562-4.185a4.5 4.5 0 0 1 5.953 1.934l4.467 8.418a4.5 4.5 0 0 0 3.198 2.324l9.387 1.647a4.5 4.5 0 0 1 3.679 5.064l-1.335 9.436a4.5 4.5 0 0 0 1.222 3.76l6.626 6.849a4.5 4.5 0 0 1 0 6.259L82.11 54.98a4.5 4.5 0 0 0-1.222 3.76l1.335 9.436a4.5 4.5 0 0 1-3.679 5.064l-9.387 1.647a4.5 4.5 0 0 0-3.198 2.324l-4.467 8.418a4.5 4.5 0 0 1-5.953 1.934l-8.562-4.185a4.5 4.5 0 0 0-3.953 0l-8.562 4.185a4.5 4.5 0 0 1-5.953-1.934l-4.467-8.418a4.5 4.5 0 0 0-3.198-2.324l-9.387-1.647a4.5 4.5 0 0 1-3.679-5.064l1.335-9.436a4.5 4.5 0 0 0-1.222-3.76l-6.626-6.849a4.5 4.5 0 0 1 0-6.259l6.626-6.849a4.5 4.5 0 0 0 1.222-3.76l-1.335-9.436a4.5 4.5 0 0 1 3.679-5.064l9.387-1.647a4.5 4.5 0 0 0 3.198-2.324l4.467-8.418a4.5 4.5 0 0 1 5.953-1.934l8.562 4.185a4.5 4.5 0 0 0 3.953 0" style="stroke:none;stroke-width:1;stroke-dasharray:none;stroke-linecap:butt;stroke-linejoin:miter;stroke-miterlimit:10;fill:#d82323;fill-rule:nonzero;opacity:1" transform="translate(1.407 1.407)scale(2.81)"/><path d="M33.809 43.004c-4.801 0-8.707-3.906-8.707-8.707s3.906-8.707 8.707-8.707 8.707 3.906 8.707 8.707-3.906 8.707-8.707 8.707m0-13.414a4.71 4.71 0 0 0-4.707 4.707c0 2.596 2.111 4.707 4.707 4.707s4.707-2.111 4.707-4.707a4.713 4.713 0 0 0-4.707-4.707m-4.753 34.82a2 2 0 0 1-1.475-3.35L59.47 26.24a2 2 0 1 1 2.949 2.701l-31.888 34.82c-.394.43-.934.649-1.475.649m28.113 0c-4.801 0-8.707-3.906-8.707-8.707s3.906-8.707 8.707-8.707 8.707 3.906 8.707 8.707-3.906 8.707-8.707 8.707m0-13.414c-2.596 0-4.707 2.111-4.707 4.707s2.111 4.707 4.707 4.707 4.707-2.111 4.707-4.707-2.111-4.707-4.707-4.707" style="stroke:none;stroke-width:1;stroke-dasharray:none;stroke-linecap:butt;stroke-linejoin:miter;stroke-miterlimit:10;fill:#fff;fill-rule:nonzero;opacity:1" transform="translate(1.407 1.407)scale(2.81)"/></g></svg>